# xmcd CD database file
#
# Track frame offsets:
#	150
#	15730
#	39887
#	58072
#	70930
#	113900
#	126187
#	153517
#	189627
#	199662
#	222557
#	239215
#	264367
#	299467
#	323245
#
# Disc length: 4504 seconds
#
# Revision: 0
# Processed by: cddbd v1.5.1PL2 Copyright (c) Steve Scherf et al.
# Submitted via: CDex 1.51
#
DISCID=e911960f
DTITLE=Various Artist - くつろぎwith jazz３
DYEAR=2004
DGENRE=Jazz
TTITLE0=モナ・リザ_ナット・キング・コール
TTITLE1=マイ・ファニー・ヴァレンタイン_ビル・エヴァンスージム・ホール
TTITLE2=イット・ネヴァー・エンタード・マイ・マインド_マイルス・デイヴィス
TTITLE3=時の過ぎるまま_ペギー・リー
TTITLE4=モーニン_アート・ブレイキー
TTITLE5=プレリュード・トゥ・ア・キッス_ナンシー・ウィルソン
TTITLE6=恋とは何でしょう_アート・ペッパー
TTITLE7=ブルー・ポッサ_ジョー・ヘンダーソン
TTITLE8=朝日のようにさわやかに_ジューン・クリスティ
TTITLE9=マーシー・マーシー・マーシー_キャノンボール・アダレイ
TTITLE10=レッツ・ゲット・ロスト_チェット・ベイカー
TTITLE11=ミッドナイト・サン_サラ・ヴォーン
TTITLE12=スピーク・ライク・ア・チャイルド_ハービー・ハンコック
TTITLE13=ホワッツ・ニュー_ジャッキー・マクリーン
TTITLE14=アイ・シュッド・ケア_ジュリー・ロンドン
EXTD=YEAR: 2004
EXTT0=
EXTT1=
EXTT2=
EXTT3=
EXTT4=
EXTT5=
EXTT6=
EXTT7=
EXTT8=
EXTT9=
EXTT10=
EXTT11=
EXTT12=
EXTT13=
EXTT14=
PLAYORDER=
